# xmcd CD database file
#
# Track frame offsets:
#	150
#	12769
#	27390
#	39121
#	65489
#	90353
#	100737
#	111331
#	129210
#	147122
#	165331
#	176224
#	199998
#	209639
#
# Disc length: 2968 seconds
#
# Revision: 3
# Processed by: cddbd v1.5.2PL0 Copyright (c) Steve Scherf et al.
# Submitted via: CDex 1.79
#
DISCID=b70b960e
DTITLE=Various Artist - Livin' The Blues - Disc 3
DYEAR=2000
DGENRE=Blues
TTITLE0=Eric Clapton - Freight Loader
TTITLE1=B.B. King - King's Shuffle
TTITLE2=John Lee Hooker - Boogie Chillen 2
TTITLE3=Muddy Waters - They Call Me Muddy Waters
TTITLE4=Ike and Tina Turner - All I Can Do is Cry
TTITLE5=Johnny Winter - 38, 32, 20
TTITLE6=Arthur "Big Boy" Crudup - That's All Right
TTITLE7=John Mayal - Mama Talk to Your Daughter
TTITLE8=Muddy Waters - Everything's Gonna Be Alright
TTITLE9=John Lee Hooker - House Rent Boogie
TTITLE10=Lightning Slim - My Babe
TTITLE11=Jimmy Witherspoon - Roll 'Em Pete
TTITLE12=Ike and Tina Turner - I'm Blue
TTITLE13=Elmore James  - Standing at the Crossroads
EXTD=YEAR: 2000
EXTT0=
EXTT1=
EXTT2=
EXTT3=
EXTT4=
EXTT5=
EXTT6=
EXTT7=
EXTT8=
EXTT9=
EXTT10=
EXTT11=
EXTT12=
EXTT13=
PLAYORDER=
